Coordinates
version=1
nRows=11
nColumns=40
inDegrees=yes

Units are S.I. units (second, meters, Newtons, ...)
Angles are in degrees.

endheader
time	pelvis_tilt	pelvis_list	pelvis_rotation	pelvis_tx	pelvis_ty	pelvis_tz	hip_flexion_r	hip_adduction_r	hip_rotation_r	knee_angle_r	knee_angle_r_beta	ankle_angle_r	subtalar_angle_r	mtp_angle_r	hip_flexion_l	hip_adduction_l	hip_rotation_l	knee_angle_l	knee_angle_l_beta	ankle_angle_l	subtalar_angle_l	mtp_angle_l	lumbar_extension	lumbar_bending	lumbar_rotation	arm_flex_r	arm_add_r	arm_rot_r	elbow_flex_r	pro_sup_r	wrist_flex_r	wrist_dev_r	arm_flex_l	arm_add_l	arm_rot_l	elbow_flex_l	pro_sup_l	wrist_flex_l	wrist_dev_l
      0.00000000	     -2.00498746	      0.39691603	     -3.17921558	     -1.09071868	      0.97006265	      1.06343533	      6.05327364	     -0.95000234	    -21.59679626	    -14.59981637	     -0.25481487	      4.80467502	      1.34089117	     -8.18716622	     19.07959418	      6.69938457	     14.29705199	    -42.53379768	     -0.74235481	      7.15514724	     15.81582917	      9.17073665	     -3.19745687	     -2.18711017	      4.91535434	      6.38749065	    -12.45677084	    -12.04114246	     21.86991302	     89.95437384	      0.00000000	      0.00000000	     -6.14438174	     10.47561188	     -1.58612559	     17.72530512	     89.95437384	      0.00000000	      0.00000000
      0.01000000	     -2.37316177	      0.32069439	     -3.20026934	     -1.08542458	      0.96950475	      1.06513101	      6.02680222	     -0.70794337	    -21.75375207	    -14.46286541	     -0.25242462	      5.03692654	      1.24769452	     -8.13010084	     20.03581215	      6.67987824	     14.66777176	    -40.72774111	     -0.71083318	      6.99316610	     15.50337426	      9.15624450	     -2.87171202	     -2.07481142	      5.25792547	      6.74642386	    -12.71014589	    -11.72475631	     22.12114508	     89.95437384	      0.00000000	      0.00000000	     -6.08260118	     10.26184723	     -1.50561023	     18.27493432	     89.95437384	      0.00000000	      0.00000000
      0.02000000	     -2.15470507	      0.86438341	     -3.49088677	     -1.07948274	      0.97003889	      1.06679342	      5.31446417	     -1.17108577	    -21.30141086	    -14.21663402	     -0.24812707	      5.30183229	      1.28919396	     -8.12770448	     19.88466459	      5.91089472	     15.31753070	    -38.10703408	     -0.66509321	      5.89810718	     15.00219107	      9.28692009	     -3.13815255	     -2.70438794	      5.63697964	      7.23932755	    -12.97761245	    -10.45916164	     22.31026846	     89.95437384	      0.00000000	      0.00000000	     -6.26318159	     10.08070523	     -0.85188716	     19.20016710	     89.95437384	      0.00000000	      0.00000000
      0.03000000	     -2.17803716	      1.07454072	     -3.55977037	     -1.07352209	      0.96995987	      1.06821699	      4.84325821	     -1.31672064	    -21.45045448	    -14.03104686	     -0.24488797	      5.53953023	      1.50700066	     -8.18185537	     20.17150662	      5.53883338	     15.76683919	    -35.80251261	     -0.62487173	      5.24523470	     14.32036847	      9.26280664	     -3.13657381	     -2.92068317	      5.84555634	      7.64852878	    -13.22717085	     -9.60568353	     22.56232404	     89.95437384	      0.00000000	      0.00000000	     -6.29229627	      9.82585375	     -0.24402610	     19.75140992	     89.95437384	      0.00000000	      0.00000000
      0.04000000	     -2.12637157	      1.24227705	     -3.62762329	     -1.06748570	      0.96991894	      1.06934552	      4.27547967	     -1.44023805	    -21.60662654	    -13.83101889	     -0.24139682	      5.84532615	      1.80406077	     -8.30664785	     20.33580158	      5.16752652	     16.12793315	    -33.47704299	     -0.58428462	      4.78704100	     13.62315022	      9.18290064	     -3.21406267	     -3.07552909	      6.04324042	      8.06125981	    -13.51629842	     -8.85971108	     22.82097906	     89.95437384	      0.00000000	      0.00000000	     -6.31279258	      9.50012090	      0.38310406	     20.35996823	     89.95437384	      0.00000000	      0.00000000
      0.05000000	     -2.15434998	      1.31317365	     -3.60766802	     -1.06159477	      0.96961382	      1.07038702	      3.79145922	     -1.46776395	    -21.90959708	    -13.65018982	     -0.23824076	      6.16106401	      2.23908044	     -8.53319921	     20.64204753	      4.87029675	     16.21675892	    -31.23784277	     -0.54520321	      4.34410246	     12.99844186	      8.96162147	     -3.23154077	     -3.12925369	      6.16439517	      8.45257091	    -13.75562620	     -8.26225801	     23.09186255	     89.95437384	      0.00000000	      0.00000000	     -6.28052446	      9.18125443	      0.84685437	     20.79429913	     89.95437384	      0.00000000	      0.00000000
      0.06000000	     -2.48639311	      1.08845045	     -3.53903654	     -1.05589370	      0.96862197	      1.07152653	      3.66973863	     -1.12156648	    -22.19700854	    -13.53173620	     -0.23617335	      6.44654608	      2.16712145	     -8.53955841	     21.48634642	      5.03139226	     16.46837854	    -29.47129500	     -0.51437113	      4.36623539	     12.59812775	      8.91674700	     -2.91530171	     -2.83891118	      6.29968425	      8.80133945	    -13.94588856	     -8.10667273	     23.30876654	     89.95437384	      0.00000000	      0.00000000	     -6.20203580	      8.90476147	      0.85337364	     21.15984464	     89.95437384	      0.00000000	      0.00000000
      0.07000000	     -2.56101127	      1.24001406	     -3.47619858	     -1.05029596	      0.96814270	      1.07228078	      3.29629874	     -1.21591813	    -22.04450274	    -13.42290799	     -0.23427394	      6.68324494	      2.20572918	     -8.58464887	     21.73443784	      4.60083746	     16.21341734	    -26.99185877	     -0.47109681	      3.56573317	     11.06439038	      8.86855750	     -2.93295048	     -2.98435290	      6.34270054	      9.21443553	    -14.16532238	     -7.43223404	     23.58893070	     89.95437384	      0.00000000	      0.00000000	     -6.13982654	      8.63768063	      1.10933015	     21.65690880	     89.95437384	      0.00000000	      0.00000000
      0.08000000	     -2.14207097	      1.36504270	     -3.53997078	     -1.04387370	      0.96833947	      1.07315669	      2.29103403	     -1.34340005	    -22.40095342	    -13.18200919	     -0.23006946	      6.97588643	      2.56062416	     -8.84955865	     21.38938467	      4.28815741	     16.42408492	    -24.69087416	     -0.43093705	      3.16355972	      9.91459478	      8.65531494	     -3.42805922	     -3.12644518	      6.41458257	      9.63604043	    -14.43176955	     -6.43280452	     23.86068705	     89.95437384	      0.00000000	      0.00000000	     -6.05442726	      8.28954048	      1.70422434	     21.98256650	     89.95437384	      0.00000000	      0.00000000
      0.09000000	     -2.39143577	      1.25048035	     -3.45314354	     -1.03821011	      0.96735803	      1.07384408	      2.13542165	     -1.14541492	    -22.49107092	    -13.13799650	     -0.22930130	      7.24379376	      2.57671369	     -8.91423611	     22.00472332	      4.23277640	     16.08104385	    -22.74060578	     -0.39689844	      2.81561910	      8.77437303	      8.55077725	     -3.24716618	     -2.96271339	      6.44882777	     10.00352941	    -14.58522086	     -6.22829795	     24.07220101	     89.95437384	      0.00000000	      0.00000000	     -5.96753259	      7.99981145	      1.79717067	     22.34341711	     89.95437384	      0.00000000	      0.00000000
      0.10000000	     -2.17447019	      1.35047314	     -3.42602938	     -1.03195711	      0.96712239	      1.07446091	      1.42159077	     -1.25423635	    -22.70678462	    -13.08700933	     -0.22841140	      7.48747501	      2.66924656	     -9.17313986	     21.94880328	      3.98685042	     16.16693894	    -20.64921692	     -0.36039682	      2.21303524	      7.08951535	      8.34171601	     -3.54320150	     -3.08357407	      6.45258682	     10.45181565	    -14.67721546	     -5.93170806	     24.18095401	     89.95437384	      0.00000000	      0.00000000	     -5.88565148	      7.72577962	      2.17112689	     22.68262916	     89.95437384	      0.00000000	      0.00000000
